<?xml version="1.0" encoding="utf-8"?>
<!-- Generator: Adobe Illustrator 16.0.0, SVG Export Plug-In . SVG Version: 6.00 Build 0)  -->
<!DOCTYPE svg PUBLIC "-//W3C//DTD SVG 1.1//EN" "http://www.w3.org/Graphics/SVG/1.1/DTD/svg11.dtd">
<svg version="1.1" id="Calque_1" xmlns="http://www.w3.org/2000/svg" xmlns:xlink="http://www.w3.org/1999/xlink" x="0px" y="0px"
	 width="50px" height="50px" viewBox="0 0 50 50" enable-background="new 0 0 50 50" xml:space="preserve">
<g>
	<circle fill="#24D390" cx="25" cy="25" r="25"/>
	<path fill="#FFFFFF" d="M30.348,20.92c0.002-0.632-0.236-1.381-0.716-2.252c-0.403-0.734-0.886-1.297-1.43-1.684
		c-0.55-0.385-1.138-0.65-1.757-0.786c-0.625-0.134-1.263-0.165-1.915-0.08c-0.655,0.084-1.289,0.225-1.907,0.429
		c-0.474,0.157-0.913,0.316-1.324,0.492c-0.406,0.172-0.73,0.324-0.964,0.456l4.182,7.591c0.11-0.007,0.262-0.035,0.464-0.071
		c0.201-0.042,0.413-0.089,0.631-0.151c0.22-0.059,0.432-0.12,0.634-0.188c0.198-0.065,0.349-0.114,0.444-0.146
		c0.639-0.21,1.244-0.474,1.811-0.794c0.564-0.316,1.016-0.706,1.35-1.17C30.18,22.101,30.346,21.553,30.348,20.92 M31.661,13.402
		c1.188,0.807,2.233,2.026,3.129,3.649c0.81,1.472,1.224,2.805,1.233,3.999c0.015,1.192-0.25,2.26-0.795,3.201
		c-0.543,0.946-1.311,1.747-2.305,2.418c-0.988,0.667-2.1,1.201-3.33,1.604c-0.119,0.039-0.312,0.103-0.57,0.188
		c-0.262,0.086-0.539,0.17-0.828,0.252c-0.286,0.084-0.577,0.156-0.862,0.225c-0.283,0.065-0.489,0.11-0.62,0.129l4.438,8.058
		l-4.869,1.599L13.513,15.552c0.896-0.508,1.914-1.005,3.059-1.5c1.141-0.493,2.305-0.934,3.488-1.325
		c1.232-0.403,2.523-0.715,3.871-0.935c1.352-0.218,2.68-0.208,3.988,0.037C29.229,12.072,30.479,12.593,31.661,13.402"/>
</g>
</svg>
