<?xml version="1.0" encoding="utf-8"?>
<!-- Generator: Adobe Illustrator 16.0.0, SVG Export Plug-In . SVG Version: 6.00 Build 0)  -->
<!DOCTYPE svg PUBLIC "-//W3C//DTD SVG 1.1//EN" "http://www.w3.org/Graphics/SVG/1.1/DTD/svg11.dtd">
<svg version="1.1" id="Calque_1" xmlns="http://www.w3.org/2000/svg" xmlns:xlink="http://www.w3.org/1999/xlink" x="0px" y="0px"
	 width="15.694px" height="12.948px" viewBox="0 0 15.694 12.948" enable-background="new 0 0 15.694 12.948" xml:space="preserve">
<g>
	<path fill="#999999" d="M9.291,6.544c0.077-0.077,0.186-0.112,0.293-0.095l3.81,0.604c0.077,0.012,0.144,0.053,0.194,0.107l0,0
		v0.001c0.016,0.017,0.029,0.034,0.041,0.053c0.014,0.021,0.025,0.044,0.033,0.069c0.04,0.121,0.008,0.255-0.082,0.344l-1.043,1.044
		l2.926,2.926c0.309,0.31,0.309,0.811,0,1.119c-0.31,0.309-0.811,0.31-1.119,0L11.418,9.79l-0.457,0.456l0,0l-0.587,0.588
		c-0.021,0.02-0.043,0.036-0.067,0.05c-0.006,0.004-0.013,0.008-0.021,0.012c-0.019,0.009-0.039,0.017-0.06,0.022
		c-0.007,0.002-0.012,0.004-0.019,0.006c-0.024,0.006-0.049,0.009-0.073,0.009c-0.002,0-0.004-0.001-0.006-0.001
		c-0.033,0-0.066-0.005-0.1-0.016c-0.121-0.039-0.21-0.144-0.229-0.27l-0.604-3.81C9.179,6.73,9.214,6.621,9.291,6.544z"/>
	<path fill="#999999" d="M8,12H0.5C0.224,12,0,12.087,0,11.811v-11C0,0.534,0.224,0,0.5,0h14C14.776,0,15,0.534,15,0.811v4.5
		c0,0.276-0.224,0.5-0.5,0.5S14,5.587,14,5.311V1H1v10h7c0.276,0,0.5,0.224,0.5,0.5S8.276,12,8,12z"/>
</g>
</svg>
